<svg width="33" height="30" viewBox="0 0 33 30" fill="none" xmlns="http://www.w3.org/2000/svg">
<path d="M9.30615 21.2221C8.27063 21.2221 7.43115 21.9186 7.43115 22.7777C7.43115 23.6369 8.27063 24.3333 9.30615 24.3333C10.3417 24.3333 11.1812 23.6369 11.1812 22.7777C11.1812 21.9186 10.3417 21.2221 9.30615 21.2221ZM9.30615 21.2221L9.31941 15.0002M9.30615 22.7777L9.31941 22.7888M31.8062 4.11115C31.8062 5.82938 30.1273 7.22229 28.0562 7.22229C25.985 7.22229 24.3062 5.82938 24.3062 4.11115C24.3062 2.39291 25.985 1 28.0562 1C30.1273 1 31.8062 2.39291 31.8062 4.11115ZM16.8062 22.7777C16.8062 26.2143 13.4482 29 9.30615 29C5.16401 29 1.80615 26.2143 1.80615 22.7777C1.80615 21.1997 2.51423 19.7588 3.68115 18.662V5.66672C3.68115 3.08937 6.19956 1 9.30615 1C12.4127 1 14.9312 3.08937 14.9312 5.66672V18.662C16.0982 19.7588 16.8062 21.1997 16.8062 22.7777Z" stroke="white" stroke-width="2" stroke-linecap="round" stroke-linejoin="round"/>
</svg>
