<svg width="23" height="24" viewBox="0 0 23 24" fill="none" xmlns="http://www.w3.org/2000/svg">
<path id="bell_icon" d="M11.282 4.78538C11.8963 4.76333 12.3774 4.22584 12.3562 3.58486C12.3351 2.94387 11.8199 2.44212 11.2054 2.46417L11.282 4.78538ZM4.50252 11.3218L3.3898 11.3574C3.39021 11.371 3.39083 11.3847 3.39169 11.3983L4.50252 11.3218ZM2.60232 16.6126L3.32907 17.4923C3.34897 17.4745 3.36827 17.4559 3.38691 17.4365L2.60232 16.6126ZM1.95108 17.1747L2.60501 18.1146C2.62339 18.1006 2.64135 18.0861 2.65888 18.0711L1.95108 17.1747ZM8.34922 20.9032C8.96406 20.9032 9.4625 20.3833 9.4625 19.7419C9.4625 19.1006 8.96406 18.5806 8.34922 18.5806V20.9032ZM11.282 2.46417C10.6675 2.44212 10.1523 2.94387 10.131 3.58486C10.11 4.22584 10.5909 4.76333 11.2054 4.78538L11.282 2.46417ZM17.9848 11.3218L19.0956 11.3981C19.0965 11.3845 19.0971 11.371 19.0976 11.3574L17.9848 11.3218ZM19.885 16.6111L19.1004 17.435C19.1191 17.4542 19.1384 17.4729 19.1583 17.4907L19.885 16.6111ZM20.5363 17.1732L19.8284 18.0695C19.8457 18.0842 19.8632 18.0985 19.8811 18.1121L20.5363 17.1732ZM14.1381 18.5806C13.5233 18.5806 13.0249 19.1006 13.0249 19.7419C13.0249 20.3833 13.5233 20.9032 14.1381 20.9032V18.5806ZM10.1304 3.62477C10.1304 4.26613 10.6289 4.78606 11.2437 4.78606C11.8585 4.78606 12.3569 4.26613 12.3569 3.62477H10.1304ZM12.3569 1.16129C12.3569 0.519933 11.8585 0 11.2437 0C10.6289 0 10.1304 0.519933 10.1304 1.16129H12.3569ZM8.34922 18.5806C7.7344 18.5806 7.23598 19.1006 7.23598 19.7419C7.23598 20.3833 7.7344 20.9032 8.34922 20.9032V18.5806ZM14.1381 20.9032C14.7529 20.9032 15.2514 20.3833 15.2514 19.7419C15.2514 19.1006 14.7529 18.5806 14.1381 18.5806V20.9032ZM9.4625 19.7419C9.4625 19.1006 8.96406 18.5806 8.34922 18.5806C7.7344 18.5806 7.23598 19.1006 7.23598 19.7419H9.4625ZM15.2514 19.7419C15.2514 19.1006 14.7529 18.5806 14.1381 18.5806C13.5233 18.5806 13.0249 19.1006 13.0249 19.7419H15.2514ZM11.2054 2.46417C6.71999 2.6251 3.25072 6.63021 3.3898 11.3574L4.50252 11.3218L5.61524 11.2862C5.51215 7.78239 8.07462 4.90046 11.282 4.78538L11.2054 2.46417ZM3.39169 11.3983C3.49593 13.0449 2.91613 14.6505 1.81774 15.7887L3.38691 17.4365C4.94897 15.8177 5.75941 13.5524 5.61334 11.2453L3.39169 11.3983ZM1.87558 15.733C1.643 15.942 1.44752 16.1029 1.24326 16.2783L2.65888 18.0711C2.82221 17.9306 3.07247 17.723 3.32907 17.4923L1.87558 15.733ZM1.29714 16.2348C0.971688 16.4813 0.675951 16.8334 0.455499 17.2052C0.237778 17.5722 0.0294675 18.0663 0.0027793 18.6129C-0.0264174 19.2107 0.170997 19.8756 0.75747 20.3433C1.28215 20.762 1.97353 20.9032 2.70507 20.9032V18.5806C2.46263 18.5806 2.30227 18.5559 2.20389 18.5297C2.10634 18.5038 2.08898 18.4817 2.11 18.4984C2.13723 18.5203 2.17758 18.5664 2.2042 18.6328C2.22836 18.6934 2.22629 18.733 2.22639 18.7311C2.2266 18.7267 2.22955 18.6941 2.25075 18.6331C2.27145 18.5735 2.30408 18.5028 2.34885 18.4274C2.39336 18.3523 2.44399 18.2824 2.49415 18.2242C2.54573 18.1641 2.58582 18.129 2.60501 18.1146L1.29714 16.2348ZM2.70507 20.9032H8.34922V18.5806H2.70507V20.9032ZM11.2054 4.78538C14.4127 4.90046 16.9751 7.78239 16.8721 11.2862L19.0976 11.3574C19.2366 6.63021 15.7673 2.6251 11.282 2.46417L11.2054 4.78538ZM16.874 11.2455C16.7284 13.5521 17.5389 15.8166 19.1004 17.435L20.6696 15.7872C19.5715 14.6493 18.9917 13.0442 19.0956 11.3981L16.874 11.2455ZM19.1583 17.4907C19.4149 17.7214 19.6652 17.9291 19.8284 18.0695L21.244 16.2768C21.0398 16.1014 20.8443 15.9405 20.6117 15.7315L19.1583 17.4907ZM19.8811 18.1121C19.901 18.1271 19.9417 18.1629 19.9936 18.2234C20.0443 18.2823 20.0953 18.3524 20.1403 18.428C20.1854 18.5038 20.2184 18.5749 20.2393 18.6348C20.2607 18.6962 20.2638 18.7288 20.2639 18.7332C20.2641 18.735 20.2619 18.6949 20.2862 18.6339C20.3129 18.5667 20.3537 18.5203 20.3812 18.4983C20.4023 18.4814 20.3849 18.5035 20.2869 18.5295C20.1881 18.5559 20.027 18.5806 19.7838 18.5806V20.9032C20.516 20.9032 21.2083 20.7622 21.7333 20.3435C22.3209 19.8749 22.5177 19.2088 22.4873 18.6105C22.4596 18.0636 22.2501 17.5699 22.0321 17.2032C21.8112 16.8319 21.5155 16.4804 21.1913 16.2342L19.8811 18.1121ZM19.7838 18.5806H14.1381V20.9032H19.7838V18.5806ZM12.3569 3.62477V1.16129H10.1304V3.62477H12.3569ZM8.34922 20.9032H14.1381V18.5806H8.34922V20.9032ZM7.23598 19.7419C7.23598 22.0658 9.00384 24 11.2437 24V21.6774C10.2863 21.6774 9.4625 20.8388 9.4625 19.7419H7.23598ZM11.2437 24C13.4834 24 15.2514 22.0658 15.2514 19.7419H13.0249C13.0249 20.8388 12.2009 21.6774 11.2437 21.6774V24Z" fill="#E3A524"/>
</svg>
